M48
INCH,TZ
T1C0.0157
T2C0.0236
T3C0.0315
T4C0.0394
T5C0.0394
T6C0.1260
%
G90
G05
T1
X24300Y-25400
X25500Y-22300
X32100Y-43900
X35900Y-36000
X39600Y-22000
X41000Y-22000
X42600Y-22000
X44000Y-25600
X44600Y-31200
X45000Y-42000
T2
X24500Y-43300
T3
X24516Y-45500
X25500Y-45500
X25500Y-27000
X25500Y-30000
X26500Y-27000
X26500Y-30000
X27500Y-27000
X27500Y-30000
X28500Y-27000
X28500Y-30000
X29500Y-27000
X29500Y-30000
X30500Y-27000
X30500Y-30000
X31500Y-27000
X31500Y-30000
X35000Y-27000
X35000Y-30000
X36000Y-27000
X36000Y-30000
X37000Y-27000
X37000Y-30000
X38000Y-27000
X38000Y-30000
X39000Y-27000
X39000Y-30000
X40000Y-27000
X40000Y-30000
X41000Y-27000
X41000Y-30000
X42000Y-27000
X42000Y-30000
X43000Y-27000
X43000Y-30000
X44000Y-27000
X44000Y-30000
X25500Y-32500
X25500Y-38500
X26500Y-32500
X26500Y-38500
X27500Y-32500
X27500Y-38500
X28500Y-32500
X28500Y-38500
X29500Y-32500
X29500Y-38500
X30500Y-32500
X30500Y-38500
X31500Y-32500
X31500Y-38500
X32500Y-32500
X32500Y-38500
X33500Y-32500
X33500Y-38500
X34500Y-32500
X34500Y-38500
X35500Y-32500
X35500Y-38500
X36500Y-32500
X36500Y-38500
X37500Y-32500
X37500Y-38500
X38500Y-32500
X38500Y-38500
X39500Y-32500
X39500Y-38500
X40500Y-32500
X40500Y-38500
X41500Y-32500
X41500Y-38500
X42500Y-32500
X42500Y-38500
X43500Y-32500
X43500Y-38500
X44500Y-32500
X44500Y-38500
T4
X31500Y-23500
X31500Y-24500
X32500Y-23500
X32500Y-24500
X33500Y-23500
X33500Y-24500
X34500Y-23500
X34500Y-24500
X35500Y-23500
X35500Y-24500
X36500Y-23500
X36500Y-24500
X37500Y-23500
X37500Y-24500
X38500Y-23500
X38500Y-24500
X39500Y-23500
X39500Y-24500
X40500Y-23500
X40500Y-24500
X41500Y-23500
X41500Y-24500
X42500Y-23500
X42500Y-24500
T5
X26970Y-23114
X26970Y-24886
X29530Y-23114
X29530Y-24886
T6
X44750Y-24000
X25250Y-24000
T0
M30
